<svg width="349" height="121" viewBox="0 0 349 121" fill="none" xmlns="http://www.w3.org/2000/svg">
<g opacity="0.24" clip-path="url(#clip0)">
<path d="M320.964 28.8229C329.982 28.8229 329.982 13.6072 339 13.6072V121H-292.254V110.879C-282.484 110.879 -283.236 116.476 -274.218 116.476C-265.2 116.476 -265.2 100.581 -256.182 100.581C-247.164 100.581 -248.667 105.472 -238.146 105.472C-227.625 105.472 -230.631 114.628 -220.11 114.628C-209.589 114.628 -211.844 111.151 -202.075 111.151C-192.305 111.151 -194.184 94.5764 -184.039 94.5764C-173.894 94.5764 -176.524 99.9834 -166.003 99.9834C-155.482 99.9834 -157.361 107.428 -147.967 107.428C-138.573 107.428 -140.076 82.7027 -129.931 82.7027C-119.786 82.7027 -120.913 91.2615 -111.895 91.2615C-102.878 91.2615 -104.38 79.2792 -93.8596 79.2792C-83.3387 79.2792 -85.5932 86.9414 -75.8238 86.9414C-66.0544 86.9414 -67.5574 55.6134 -57.788 55.6134C-48.0186 55.6134 -49.8973 64.3352 -39.7522 64.3352C-29.607 64.3352 -32.2372 70.0954 -21.7163 70.0954C-11.1954 70.0954 -13.8257 55.1515 -3.68051 55.1515C6.46463 55.1515 3.83441 62.4876 14.3553 62.4876C24.8762 62.4876 22.9975 50.3966 32.3911 50.3966C41.7848 50.3966 40.6575 30.1815 50.4269 30.1815C60.1963 30.1815 58.6933 64.0092 68.4627 64.0092C78.2321 64.0092 77.1049 40.3162 86.4986 40.3162C95.8922 40.3162 94.0135 50.6954 104.534 50.6954C115.055 50.6954 112.801 60.015 122.57 60.015C132.34 60.015 131.212 44.582 140.606 44.582C150 44.582 149.248 59.2543 158.642 59.2543C168.035 59.2543 166.908 52.7333 176.678 52.7333C186.447 52.7333 184.944 39.2837 194.713 39.2837C204.483 39.2837 202.98 44.6635 212.749 44.6635C222.519 44.6635 221.767 25.019 230.785 25.019C239.803 25.019 238.3 51.9453 248.821 51.9453C259.342 51.9453 256.712 33.6593 266.857 33.6593C277.002 33.6593 275.499 41.1857 284.893 41.1857C294.286 41.1857 293.535 22.4378 302.928 22.4378C312.322 22.4378 311.946 28.8229 320.964 28.8229Z" fill="#102E4A"/>
</g>
<g clip-path="url(#clip1)">
<path d="M339 13.6074C329.982 13.6074 329.982 28.823 320.964 28.823C311.946 28.823 312.322 22.4379 302.928 22.4379C293.535 22.4379 294.286 41.1858 284.893 41.1858C275.499 41.1858 277.002 33.6594 266.857 33.6594C256.712 33.6594 259.342 51.9454 248.821 51.9454C238.3 51.9454 239.803 25.0191 230.785 25.0191C221.767 25.0191 222.519 44.6636 212.749 44.6636C202.98 44.6636 204.483 39.2838 194.713 39.2838C184.944 39.2838 186.447 52.7334 176.678 52.7334C166.908 52.7334 168.035 59.2544 158.642 59.2544C149.248 59.2544 150 44.5821 140.606 44.5821C131.212 44.5821 132.34 60.0152 122.57 60.0152C112.801 60.0152 115.055 50.6956 104.534 50.6956C94.0135 50.6956 95.8922 40.3163 86.4986 40.3163C77.1049 40.3163 78.2321 64.0093 68.4627 64.0093C58.6933 64.0093 60.1963 30.1816 50.4269 30.1816C40.6575 30.1816 41.7848 50.3967 32.3911 50.3967C22.9975 50.3967 24.8762 62.4877 14.3553 62.4877C3.8344 62.4877 6.46462 55.1516 -3.68053 55.1516C-13.8257 55.1516 -11.1954 70.0956 -21.7163 70.0956C-32.2372 70.0956 -29.607 64.3353 -39.7522 64.3353C-49.8973 64.3353 -48.0186 55.6135 -57.788 55.6135C-67.5574 55.6135 -66.0544 86.9415 -75.8238 86.9415C-85.5932 86.9415 -83.3387 79.2793 -93.8596 79.2793C-104.381 79.2793 -102.878 91.2616 -111.895 91.2616C-120.913 91.2616 -119.786 82.7028 -129.931 82.7028C-140.076 82.7028 -138.573 107.428 -147.967 107.428C-157.361 107.428 -155.482 99.9835 -166.003 99.9835C-176.524 99.9835 -173.894 94.5765 -184.039 94.5765C-194.184 94.5765 -192.305 111.151 -202.075 111.151C-211.844 111.151 -209.589 114.629 -220.11 114.629C-230.631 114.629 -227.625 105.472 -238.146 105.472C-248.667 105.472 -247.164 100.581 -256.182 100.581C-265.2 100.581 -265.2 116.476 -274.218 116.476C-283.236 116.476 -282.484 110.879 -292.254 110.879" stroke="#102E4A" stroke-width="0.751492"/>
<rect x="0.375746" y="-0.375746" width="6.75149" height="6.75149" rx="3.37575" transform="matrix(-1 0 0 1 54.2663 27.503)" fill="#102E4A" stroke="white" stroke-width="0.751492"/>
<rect x="0.375746" y="-0.375746" width="6.75149" height="6.75149" rx="3.37575" transform="matrix(-1 0 0 1 41.2663 44.503)" fill="#102E4A" stroke="white" stroke-width="0.751492"/>
<rect x="0.375746" y="-0.375746" width="6.75149" height="6.75149" rx="3.37575" transform="matrix(-1 0 0 1 22.2663 57.503)" fill="#102E4A" stroke="white" stroke-width="0.751492"/>
</g>
<rect x="0.375746" y="-0.375746" width="6.75149" height="6.75149" rx="3.37575" transform="matrix(-1 0 0 1 324.74 26.1061)" fill="#102E4A" stroke="white" stroke-width="0.751492"/>
<rect x="0.375746" y="-0.375746" width="6.75149" height="6.75149" rx="3.37575" transform="matrix(-1 0 0 1 306.704 19.6971)" fill="#102E4A" stroke="white" stroke-width="0.751492"/>
<rect x="0.375746" y="-0.375746" width="6.75149" height="6.75149" rx="3.37575" transform="matrix(-1 0 0 1 288.668 38.5469)" fill="#102E4A" stroke="white" stroke-width="0.751492"/>
<rect x="0.375746" y="-0.375746" width="6.75149" height="6.75149" rx="3.37575" transform="matrix(-1 0 0 1 270.632 31.0071)" fill="#102E4A" stroke="white" stroke-width="0.751492"/>
<rect x="0.375746" y="-0.375746" width="6.75149" height="6.75149" rx="3.37575" transform="matrix(-1 0 0 1 342.775 10.6494)" fill="#102E4A" stroke="white" stroke-width="0.751492"/>
<rect x="0.375746" y="-0.375746" width="6.75149" height="6.75149" rx="3.37575" transform="matrix(-1 0 0 1 234.561 22.3362)" fill="#102E4A" stroke="white" stroke-width="0.751492"/>
<rect x="0.375746" y="-0.375746" width="6.75149" height="6.75149" rx="3.37575" transform="matrix(-1 0 0 1 216.525 42.317)" fill="#102E4A" stroke="white" stroke-width="0.751492"/>
<rect x="0.375746" y="-0.375746" width="6.75149" height="6.75149" rx="3.37575" transform="matrix(-1 0 0 1 198.489 37.039)" fill="#102E4A" stroke="white" stroke-width="0.751492"/>
<rect x="0.375746" y="-0.375746" width="6.75149" height="6.75149" rx="3.37575" transform="matrix(-1 0 0 1 180.453 50.2339)" fill="#102E4A" stroke="white" stroke-width="0.751492"/>
<rect x="0.375746" y="-0.375746" width="6.75149" height="6.75149" rx="3.37575" transform="matrix(-1 0 0 1 252.596 49.4798)" fill="#102E4A" stroke="white" stroke-width="0.751492"/>
<rect x="0.375746" y="-0.375746" width="6.75149" height="6.75149" rx="3.37575" transform="matrix(-1 0 0 1 144.382 41.9399)" fill="#102E4A" stroke="white" stroke-width="0.751492"/>
<rect x="0.375746" y="-0.375746" width="6.75149" height="6.75149" rx="3.37575" transform="matrix(-1 0 0 1 126.346 57.3967)" fill="#102E4A" stroke="white" stroke-width="0.751492"/>
<rect x="0.375746" y="-0.375746" width="6.75149" height="6.75149" rx="3.37575" transform="matrix(-1 0 0 1 108.31 48.3489)" fill="#102E4A" stroke="white" stroke-width="0.751492"/>
<rect x="0.375746" y="-0.375746" width="6.75149" height="6.75149" rx="3.37575" transform="matrix(-1 0 0 1 90.274 37.793)" fill="#102E4A" stroke="white" stroke-width="0.751492"/>
<rect x="0.375746" y="-0.375746" width="6.75149" height="6.75149" rx="3.37575" transform="matrix(-1 0 0 1 72.2383 61.5437)" fill="#102E4A" stroke="white" stroke-width="0.751492"/>
<rect x="0.375746" y="-0.375746" width="6.75149" height="6.75149" rx="3.37575" transform="matrix(-1 0 0 1 162.417 57.0197)" fill="#102E4A" stroke="white" stroke-width="0.751492"/>
<defs>
<clipPath id="clip0">
<rect width="339" height="107.393" fill="white" transform="matrix(-1 0 0 1 339 13.6072)"/>
</clipPath>
<clipPath id="clip1">
<rect width="339" height="107.444" fill="white" transform="matrix(-1 0 0 1 339 13.5563)"/>
</clipPath>
</defs>
</svg>
