<svg width="95" height="19" viewBox="0 0 95 19" fill="none" xmlns="http://www.w3.org/2000/svg">
<path d="M14.4505 18L14.4505 1.2L10.7545 1.2L10.7545 7.848L3.93852 7.848L3.93852 1.2L0.242517 1.2L0.242518 18L3.93852 18L3.93852 11.256L10.7545 11.256L10.7545 18L14.4505 18ZM31.2689 18L31.2689 14.712L22.1489 14.712L22.1489 11.184L30.0689 11.184L30.0689 7.896L22.1489 7.896L22.1489 4.488L31.1489 4.488L31.1489 1.2L18.4769 1.2L18.4769 18L31.2689 18ZM46.627 18L46.627 14.64L38.251 14.64L38.251 1.2L34.555 1.2L34.555 18L46.627 18ZM47.1815 7.416L47.4935 8.928C50.3495 8.88 51.9335 7.608 51.9335 4.44L51.9335 1.2L48.0455 1.2L48.0455 5.04L49.5335 5.04C49.6535 6.408 48.8375 7.248 47.1815 7.416ZM58.8486 3.72L58.8486 0.480001L55.0086 0.480001L55.0086 3.72L58.8486 3.72ZM58.7526 18L58.7526 5.136L55.1046 5.136L55.1046 18L58.7526 18ZM79.6748 9.6L79.6748 9.552C79.6748 4.776 75.9548 0.912001 70.7708 0.912001C65.5868 0.912001 61.8188 4.824 61.8188 9.6L61.8188 9.648C61.8188 14.424 65.5388 18.288 70.7228 18.288C75.9068 18.288 79.6748 14.376 79.6748 9.6ZM75.8108 9.648C75.8108 12.528 73.7468 14.88 70.7708 14.88C67.7948 14.88 65.6828 12.48 65.6828 9.6L65.6828 9.552C65.6828 6.672 67.7468 4.32 70.7228 4.32C73.6988 4.32 75.8108 6.72 75.8108 9.6L75.8108 9.648ZM94.9469 4.608L94.9469 1.2L81.0269 1.2L81.0269 4.608L86.1389 4.608L86.1389 18L89.8349 18L89.8349 4.608L94.9469 4.608Z" fill="white"/>
</svg>
