<svg id="Layer_1" enable-background="new 0 0 256 256" height="512" viewBox="0 0 256 256" width="512" xmlns="http://www.w3.org/2000/svg"><path d="m223.765 202.072h-191.53c-8.635 0-15.635-7-15.635-15.635v-144.626c0-8.635 7-15.635 15.635-15.635h191.531c8.635 0 15.635 7 15.635 15.635v144.625c0 8.636-7 15.636-15.636 15.636z" fill="#4671c6"/><path d="m28.411 149.305v-105.538c0-3.238 2.625-5.863 5.863-5.863h187.622c3.238 0 5.863 2.625 5.863 5.863v105.537c0 3.238-2.625 5.863-5.863 5.863h-187.622c-3.238.001-5.863-2.624-5.863-5.862z" fill="#6bdddd"/><path d="m195.805 248h-135.61c-3.029 0-5.485-2.456-5.485-5.485v-2.712c0-3.029 2.456-5.485 5.485-5.485h135.611c3.029 0 5.485 2.456 5.485 5.485v2.712c-.001 3.029-2.457 5.485-5.486 5.485z" fill="#f9cfcf"/><path d="m82.136 202.073-7.882 32.246h107.492l-7.882-32.246z" fill="#a4c9ff"/><path d="m16.599 166.892v19.544c0 8.635 7 15.635 15.635 15.635h191.531c8.635 0 15.635-7 15.635-15.635v-19.544z" fill="#f9cfcf"/><path d="m128.501 194.254h-1.003c-5.099 0-9.271-4.172-9.271-9.271v-1.003c0-5.099 4.172-9.271 9.271-9.271h1.003c5.099 0 9.271 4.172 9.271 9.271v1.003c0 5.099-4.172 9.271-9.271 9.271z" fill="#f9a7a7"/><g fill="#3762cc"><path d="m223.766 204.072h-191.532c-9.724 0-17.635-7.911-17.635-17.635v-144.626c0-9.724 7.911-17.635 17.635-17.635h191.531c9.724 0 17.635 7.911 17.635 17.635v144.625c.001 9.725-7.91 17.636-17.634 17.636zm-191.532-175.896c-7.519 0-13.635 6.117-13.635 13.635v144.625c0 7.519 6.117 13.635 13.635 13.635h191.531c7.519 0 13.635-6.117 13.635-13.635v-144.625c0-7.519-6.117-13.635-13.635-13.635z"/><path d="m195.805 250h-135.61c-4.127 0-7.485-3.357-7.485-7.484v-2.712c0-4.127 3.358-7.484 7.485-7.484h135.61c4.127 0 7.485 3.357 7.485 7.484v2.712c0 4.127-3.358 7.484-7.485 7.484zm-135.61-13.681c-1.921 0-3.485 1.563-3.485 3.484v2.712c0 1.921 1.563 3.484 3.485 3.484h135.61c1.921 0 3.485-1.563 3.485-3.484v-2.712c0-1.921-1.563-3.484-3.485-3.484z"/><path d="m181.746 236.319h-107.492c-.614 0-1.194-.282-1.573-.765s-.515-1.113-.37-1.71l7.882-32.246c.219-.895 1.021-1.525 1.943-1.525h91.728c.921 0 1.724.63 1.943 1.525l7.882 32.246c.146.597.009 1.227-.37 1.71s-.959.765-1.573.765zm-104.944-4h102.396l-6.904-28.246h-88.588z"/><path d="m223.766 204.072h-191.532c-9.724 0-17.635-7.911-17.635-17.635v-19.544c0-1.104.896-2 2-2h222.801c1.104 0 2 .896 2 2v19.544c0 9.724-7.911 17.635-17.634 17.635zm-205.167-35.179v17.544c0 7.519 6.117 13.635 13.635 13.635h191.531c7.518 0 13.635-6.117 13.635-13.635v-17.544z"/><path d="m221.896 157.168h-187.622c-4.336 0-7.863-3.527-7.863-7.863v-105.538c0-4.335 3.527-7.863 7.863-7.863h187.622c4.336 0 7.863 3.527 7.863 7.863v105.538c0 4.336-3.527 7.863-7.863 7.863zm-187.622-117.264c-2.13 0-3.863 1.733-3.863 3.863v105.538c0 2.13 1.733 3.863 3.863 3.863h187.622c2.13 0 3.863-1.733 3.863-3.863v-105.538c0-2.13-1.733-3.863-3.863-3.863z"/></g><ellipse cx="128" cy="64.103" fill="#a4c9ff" rx="56.092" ry="56.05"/><path d="m128 122.185c-32.032 0-58.092-26.053-58.092-58.077s26.06-58.076 58.092-58.076 58.092 26.053 58.092 58.077-26.06 58.076-58.092 58.076zm0-112.153c-29.827 0-54.092 24.259-54.092 54.077s24.265 54.076 54.092 54.076 54.092-24.259 54.092-54.077-24.265-54.076-54.092-54.076z" fill="#e0ebfc"/><path d="m128 122.153c-18.463 0-33.485-26.041-33.485-58.05s15.021-58.05 33.485-58.05 33.485 26.041 33.485 58.05-15.022 58.05-33.485 58.05zm0-112.1c-16.258 0-29.485 24.247-29.485 54.05s13.227 54.05 29.485 54.05 29.485-24.247 29.485-54.05-13.227-54.05-29.485-54.05z" fill="#e0ebfc"/><path d="m127.083 43.684c-15.516 0-30.104-6.038-41.077-17.002-.77-.77-.783-2.014-.03-2.799 11.065-11.532 25.959-17.883 41.941-17.883 15.517 0 30.105 6.038 41.077 17.002.77.77.783 2.014.03 2.799-11.064 11.532-25.959 17.883-41.941 17.883zm-36.812-18.448c10.037 9.333 23.031 14.447 36.813 14.447 14.215 0 27.506-5.395 37.646-15.237-10.037-9.331-23.031-14.446-36.813-14.446-14.215 0-27.505 5.395-37.646 15.236z" fill="#e0ebfc"/><path d="m128.152 122.153c-15.517 0-30.105-6.038-41.077-17.002-.77-.77-.783-2.014-.03-2.799 11.063-11.532 25.958-17.882 41.94-17.882 15.516 0 30.104 6.038 41.077 17.002.77.77.783 2.014.03 2.799-11.064 11.532-25.958 17.882-41.94 17.882zm-36.813-18.446c10.037 9.332 23.031 14.447 36.813 14.447 14.215 0 27.505-5.395 37.646-15.236-10.037-9.333-23.031-14.447-36.813-14.447-14.215-.001-27.506 5.394-37.646 15.236z" fill="#e0ebfc"/><path d="m184.092 67.786h-112.184c-1.104 0-2-.896-2-2s.896-2 2-2h112.185c1.104 0 2 .896 2 2s-.896 2-2.001 2z" fill="#e0ebfc"/><circle cx="128" cy="120.153" fill="#f9a7a7" r="25.886"/><path d="m128 139.031c-10.409 0-18.878-8.469-18.878-18.878s8.468-18.878 18.878-18.878 18.878 8.469 18.878 18.878-8.469 18.878-18.878 18.878z" fill="#ffea92"/><path d="m133.657 119.993 7.23-7.23c1.56-1.56 1.56-4.097 0-5.657-.755-.755-1.76-1.171-2.828-1.171s-2.073.416-2.829 1.172l-7.229 7.23-7.229-7.23c-.755-.755-1.76-1.172-2.828-1.172-1.069 0-2.073.416-2.829 1.171-1.56 1.56-1.56 4.097 0 5.657l7.23 7.23-7.23 7.23c-1.56 1.56-1.56 4.097 0 5.657.755.755 1.76 1.171 2.828 1.171s2.073-.416 2.829-1.172l7.228-7.229 7.229 7.229c.755.756 1.76 1.172 2.829 1.172s2.073-.416 2.828-1.171c1.56-1.56 1.56-4.097 0-5.657z" fill="#f9a7a7"/></svg>