<svg width="140" height="140" viewBox="0 0 140 140" fill="none" xmlns="http://www.w3.org/2000/svg">
<path d="M21.8931 50.6421L18.1976 49.1114L21.8931 50.6421ZM69.4729 18.8503L69.4729 14.8503L69.4729 14.8503L69.4729 18.8503ZM98.0848 27.5296L95.8625 30.8555L98.0848 27.5296ZM117.053 50.6421L120.748 49.1114L117.053 50.6421ZM119.983 80.3975L123.907 81.1778L123.907 81.1778L119.983 80.3975ZM35.8853 103.938C29.2424 97.2949 24.7184 88.8312 22.8856 79.6171L15.0393 81.1778C17.1808 91.9438 22.4667 101.833 30.2285 109.595L35.8853 103.938ZM22.8856 79.6171C21.0528 70.403 21.9935 60.8523 25.5886 52.1729L18.1976 49.1114C13.9969 59.2527 12.8979 70.4119 15.0393 81.1778L22.8856 79.6171ZM25.5886 52.1729C29.1838 43.4934 35.272 36.0749 43.0833 30.8555L38.6388 24.2038C29.5118 30.3022 22.3983 38.9701 18.1976 49.1114L25.5886 52.1729ZM43.0833 30.8555C50.8947 25.6362 60.0783 22.8503 69.4729 22.8503L69.4729 14.8503C58.4961 14.8503 47.7657 18.1053 38.6388 24.2038L43.0833 30.8555ZM69.4729 22.8503C78.8675 22.8503 88.0512 25.6362 95.8625 30.8555L100.307 24.2038C91.1801 18.1053 80.4498 14.8503 69.4729 14.8503L69.4729 22.8503ZM95.8625 30.8555C103.674 36.0749 109.762 43.4934 113.357 52.1729L120.748 49.1114C116.548 38.9701 109.434 30.3022 100.307 24.2038L95.8625 30.8555ZM113.357 52.1729C116.952 60.8524 117.893 70.403 116.06 79.6171L123.907 81.1778C126.048 70.4119 124.949 59.2527 120.748 49.1114L113.357 52.1729ZM116.06 79.6171C114.227 88.8312 109.703 97.2949 103.06 103.938L108.717 109.595C116.479 101.833 121.765 91.9438 123.907 81.1778L116.06 79.6171Z" fill="url(#paint0_linear)"/>
<path d="M32.1282 77.123L32.6201 77.0337L32.1282 77.123ZM48.9968 38.2583L48.726 37.8379L48.9968 38.2583ZM70.2856 32.189L70.294 31.6891L70.2856 32.189ZM91.3584 38.97L91.0737 39.381L91.3584 38.97ZM105.113 56.3156L104.647 56.4992L105.113 56.3156ZM106.912 78.3794L107.401 78.4852L106.912 78.3794ZM97.5017 97.0767L97.8481 96.7162L97.127 96.0233L96.7806 96.3839L97.5017 97.0767ZM98.625 94.317L98.306 94.7021L99.0761 95.34L99.3951 94.9549L98.625 94.317ZM101.127 92.6996L101.417 92.2921L100.602 91.7126L100.312 92.1201L101.127 92.6996ZM101.833 89.805L101.574 90.2327L102.43 90.7507L102.689 90.323L101.833 89.805ZM104.071 87.8379L104.298 87.3923L103.407 86.9387L103.18 87.3843L104.071 87.8379ZM104.345 84.871L104.152 85.3321L105.074 85.719L105.267 85.2579L104.345 84.871ZM106.27 82.5969L106.429 82.1228L105.481 81.8049L105.322 82.2789L106.27 82.5969ZM106.105 79.6219L105.982 80.1064L106.951 80.3538L107.074 79.8693L106.105 79.6219ZM107.676 77.0899L107.764 76.5977L106.779 76.4223L106.691 76.9145L107.676 77.0899ZM107.077 74.1713L107.025 74.6687L108.02 74.7712L108.071 74.2739L107.077 74.1713ZM108.259 71.4363L108.273 70.9365L107.274 70.9075L107.259 71.4072L108.259 71.4363ZM107.238 68.6372L107.26 69.1367L108.259 69.0922L108.237 68.5927L107.238 68.6372ZM108.005 65.7584L107.946 65.2619L106.953 65.3798L107.012 65.8763L108.005 65.7584ZM106.585 63.1394L106.68 63.6302L107.662 63.4396L107.566 62.9488L106.585 63.1394ZM106.922 60.179L106.791 59.6966L105.826 59.9589L105.957 60.4414L106.922 60.179ZM105.132 57.7969L105.299 58.2684L106.242 57.9358L106.075 57.4643L105.132 57.7969ZM105.031 54.8191L104.831 54.3611L103.915 54.7622L104.115 55.2202L105.031 54.8191ZM102.912 52.7253L103.145 53.1673L104.029 52.6999L103.796 52.2579L102.912 52.7253ZM102.375 49.7945L102.109 49.3709L101.262 49.9021L101.528 50.3257L102.375 49.7945ZM99.9708 48.0344L100.267 48.4374L101.073 47.8453L100.777 47.4424L99.9708 48.0344ZM99.0098 45.2142L98.685 44.8341L97.9248 45.4838L98.2497 45.8639L99.0098 45.2142ZM96.3736 43.8259L96.7255 44.181L97.4358 43.4771L97.0839 43.122L96.3736 43.8259ZM95.0092 41.1771L94.6321 40.8488L93.9755 41.6031L94.3526 41.9313L95.0092 41.1771ZM92.1977 40.1907L92.598 40.4903L93.1973 39.6898L92.7971 39.3902L92.1977 40.1907ZM90.4595 37.7708L90.0383 37.5014L89.4994 38.3438L89.9206 38.6132L90.4595 37.7708ZM87.5337 37.2075L87.9736 37.4452L88.449 36.5654L88.0091 36.3277L87.5337 37.2075ZM85.4592 35.0689L85.003 34.8642L84.5936 35.7766L85.0498 35.9812L85.4592 35.0689ZM82.4824 34.941L82.9524 35.1116L83.2936 34.1716L82.8236 34.001L82.4824 34.941ZM80.1166 33.13L79.6353 32.9944L79.3642 33.957L79.8455 34.0925L80.1166 33.13ZM77.1533 33.4402L77.6432 33.54L77.8428 32.5601L77.3528 32.4604L77.1533 33.4402ZM74.5473 31.9959L74.0513 31.9324L73.9244 32.9244L74.4204 32.9878L74.5473 31.9959ZM71.6616 32.7377L72.1609 32.7645L72.2145 31.7659L71.7152 31.7391L71.6616 32.7377ZM68.8719 31.6913L68.372 31.7013L68.392 32.7011L68.8919 32.6911L68.8719 31.6913ZM66.1262 32.8485L66.624 32.8017L66.5305 31.8061L66.0327 31.8528L66.1262 32.8485ZM63.2132 32.2228L62.7202 32.3061L62.8867 33.2921L63.3797 33.2088L63.2132 32.2228ZM60.6671 33.7703L61.1526 33.651L60.914 32.6799L60.4285 32.7992L60.6671 33.7703ZM57.6937 33.5788L57.2183 33.7335L57.5276 34.6845L58.0031 34.5298L57.6937 33.5788ZM55.4022 35.4831L55.865 35.2939L55.4866 34.3683L55.0237 34.5575L55.4022 35.4831ZM52.433 35.73L51.9854 35.9528L52.4309 36.8481L52.8786 36.6253L52.433 35.73ZM50.4458 37.95L50.8758 37.6949L50.3655 36.8348L49.9355 37.0899L50.4458 37.95ZM47.5449 38.6299L47.1348 38.9159L47.7068 39.7361L48.1169 39.4501L47.5449 38.6299ZM45.9048 41.1174L46.2927 40.8019L45.6619 40.0261L45.2739 40.3415L45.9048 41.1174ZM43.1351 42.2156L42.7714 42.5587L43.4577 43.2861L43.8214 42.9429L43.1351 42.2156ZM41.8778 44.9168L42.2153 44.5479L41.4774 43.873L41.1399 44.2419L41.8778 44.9168ZM39.2992 46.4095L38.9898 46.8023L39.7754 47.4211L40.0848 47.0283L39.2992 46.4095ZM38.4519 49.266L38.7316 48.8515L37.9026 48.2922L37.623 48.7066L38.4519 49.266ZM36.1202 51.1209L35.8718 51.5548L36.7397 52.0516L36.9881 51.6177L36.1202 51.1209ZM35.7012 54.0708L35.917 53.6197L35.015 53.1881L34.7992 53.6391L35.7012 54.0708ZM33.667 56.2477L33.4849 56.7134L34.4162 57.0775L34.5983 56.6119L33.667 56.2477ZM33.6853 59.2272L33.8326 58.7494L32.877 58.4547L32.7297 58.9326L33.6853 59.2272ZM31.9925 61.6791L31.8807 62.1664L32.8554 62.3899L32.9672 61.9026L31.9925 61.6791ZM32.4478 64.6235L32.5234 64.1293L31.5349 63.9781L31.4593 64.4723L32.4478 64.6235ZM31.1331 67.2973L31.0941 67.7958L32.091 67.8738L32.13 67.3754L31.1331 67.2973ZM32.0155 70.1431L32.0178 69.6431L31.0178 69.6386L31.0156 70.1386L32.0155 70.1431ZM31.1073 72.9808L31.1419 73.4796L32.1395 73.4106L32.105 72.9117L31.1073 72.9808ZM32.3978 75.6663L32.3267 75.1714L31.3369 75.3137L31.408 75.8086L32.3978 75.6663ZM31.9159 78.6066L32.0232 79.0949L32.9999 78.8803L32.8925 78.3919L31.9159 78.6066ZM33.5864 81.0737L33.4434 80.5946L32.4852 80.8805L32.6282 81.3597L33.5864 81.0737ZM33.5411 84.0529L33.7189 84.5202L34.6535 84.1645L34.4757 83.6972L33.5411 84.0529ZM35.5556 86.2481L35.3438 85.7952L34.4379 86.2186L34.6496 86.6716L35.5556 86.2481ZM35.9478 89.2017L36.1923 89.6378L37.0646 89.1489L36.8201 88.7127L35.9478 89.2017ZM38.2626 91.0776L37.9867 90.6606L37.1527 91.2124L37.4286 91.6294L38.2626 91.0776ZM39.084 93.9417L39.3898 94.3372L40.181 93.7256L39.8751 93.33L39.084 93.9417ZM41.649 95.4576L41.3149 95.0856L40.5709 95.7539L40.905 96.1258L41.649 95.4576ZM96.4978 98.0839C96.839 97.7539 97.1737 97.4181 97.5017 97.0767L96.7806 96.3839C96.4611 96.7165 96.135 97.0436 95.8026 97.365L96.4978 98.0839ZM99.3951 94.9549C100.001 94.2237 100.578 93.4714 101.127 92.6996L100.312 92.1201C99.7777 92.8719 99.2149 93.6047 98.625 94.317L99.3951 94.9549ZM102.689 90.323C103.18 89.5119 103.641 88.683 104.071 87.8379L103.18 87.3843C102.761 88.2074 102.312 89.0149 101.833 89.805L102.689 90.323ZM105.267 85.2579C105.633 84.3847 105.968 83.4971 106.27 82.5969L105.322 82.2789C105.028 83.1558 104.702 84.0204 104.345 84.871L105.267 85.2579ZM107.074 79.8693C107.191 79.4106 107.3 78.9491 107.401 78.4852L106.423 78.2736C106.325 78.7256 106.219 79.1751 106.105 79.6219L107.074 79.8693ZM107.401 78.4852C107.501 78.0212 107.593 77.5561 107.676 77.0899L106.691 76.9145C106.61 77.3686 106.521 77.8217 106.423 78.2736L107.401 78.4852ZM108.071 74.2739C108.169 73.3294 108.231 72.3829 108.259 71.4363L107.259 71.4072C107.232 72.3293 107.171 73.2513 107.077 74.1713L108.071 74.2739ZM108.237 68.5927C108.194 67.6454 108.117 66.7 108.005 65.7584L107.012 65.8763C107.121 66.7935 107.196 67.7145 107.238 68.6372L108.237 68.5927ZM107.566 62.9488C107.386 62.0192 107.171 61.0953 106.922 60.179L105.957 60.4414C106.2 61.3339 106.409 62.2339 106.585 63.1394L107.566 62.9488ZM106.075 57.4643C105.918 57.0178 105.752 56.5736 105.578 56.1321L104.647 56.4992C104.817 56.9293 104.979 57.3619 105.132 57.7969L106.075 57.4643ZM105.578 56.1321C105.403 55.6905 105.221 55.2528 105.031 54.8191L104.115 55.2202C104.3 55.6427 104.478 56.0691 104.647 56.4992L105.578 56.1321ZM103.796 52.2579C103.352 51.4185 102.878 50.5969 102.375 49.7945L101.528 50.3257C102.018 51.1073 102.479 51.9076 102.912 52.7253L103.796 52.2579ZM100.777 47.4424C100.215 46.6782 99.6259 45.935 99.0098 45.2142L98.2497 45.8639C98.8498 46.566 99.4239 47.2901 99.9708 48.0344L100.777 47.4424ZM97.0839 43.122C96.4173 42.4493 95.7253 41.8005 95.0092 41.1771L94.3526 41.9313C95.0502 42.5386 95.7243 43.1706 96.3736 43.8259L97.0839 43.122ZM92.7971 39.3902C92.418 39.1064 92.0334 38.8293 91.6432 38.559L91.0737 39.381C91.4538 39.6443 91.8285 39.9143 92.1977 40.1907L92.7971 39.3902ZM91.6432 38.559C91.253 38.2886 90.8583 38.0259 90.4595 37.7708L89.9206 38.6132C90.3092 38.8617 90.6936 39.1177 91.0737 39.381L91.6432 38.559ZM88.0091 36.3277C87.1737 35.8764 86.3232 35.4565 85.4592 35.0689L85.0498 35.9812C85.8914 36.3589 86.72 36.7678 87.5337 37.2075L88.0091 36.3277ZM82.8236 34.001C81.9322 33.6776 81.0293 33.387 80.1166 33.13L79.8455 34.0925C80.7346 34.3429 81.6142 34.6259 82.4824 34.941L82.8236 34.001ZM77.3528 32.4604C76.4249 32.2714 75.4891 32.1164 74.5473 31.9959L74.4204 32.9878C75.3378 33.1052 76.2494 33.2562 77.1533 33.4402L77.3528 32.4604ZM71.7152 31.7391C71.2424 31.7137 70.7686 31.697 70.294 31.6891L70.2772 32.6889C70.7395 32.6967 71.201 32.713 71.6616 32.7377L71.7152 31.7391ZM70.294 31.6891C69.8193 31.6811 69.3452 31.6819 68.8719 31.6913L68.8919 32.6911C69.353 32.6819 69.8148 32.6811 70.2772 32.6889L70.294 31.6891ZM66.0327 31.8528C65.0874 31.9416 64.1469 32.0651 63.2132 32.2228L63.3797 33.2088C64.2893 33.0552 65.2054 32.9349 66.1262 32.8485L66.0327 31.8528ZM60.4285 32.7992C59.5076 33.0254 58.5954 33.2855 57.6937 33.5788L58.0031 34.5298C58.8815 34.244 59.7701 33.9907 60.6671 33.7703L60.4285 32.7992ZM55.0237 34.5575C54.1472 34.916 53.283 35.307 52.433 35.73L52.8786 36.6253C53.7066 36.2132 54.5484 35.8323 55.4022 35.4831L55.0237 34.5575ZM49.9355 37.0899C49.5283 37.3315 49.1251 37.5809 48.726 37.8379L49.2675 38.6786C49.6563 38.4282 50.0491 38.1853 50.4458 37.95L49.9355 37.0899ZM48.726 37.8379C48.327 38.095 47.9332 38.359 47.5449 38.6299L48.1169 39.4501C48.4952 39.1862 48.8788 38.929 49.2675 38.6786L48.726 37.8379ZM45.2739 40.3415C44.5372 40.9405 43.8239 41.5657 43.1351 42.2156L43.8214 42.9429C44.4923 42.3099 45.1872 41.7009 45.9048 41.1174L45.2739 40.3415ZM41.1399 44.2419C40.5 44.9416 39.886 45.6646 39.2992 46.4095L40.0848 47.0283C40.6564 46.3027 41.2545 45.5984 41.8778 44.9168L41.1399 44.2419ZM37.623 48.7066C37.0933 49.4916 36.592 50.2969 36.1202 51.1209L36.9881 51.6177C37.4476 50.815 37.9359 50.0306 38.4519 49.266L37.623 48.7066ZM34.7992 53.6391C34.5948 54.0662 34.3981 54.4976 34.2091 54.933L35.1264 55.3312C35.3105 54.907 35.5022 54.4868 35.7012 54.0708L34.7992 53.6391ZM34.2091 54.933C34.0201 55.3685 33.8394 55.8068 33.667 56.2477L34.5983 56.6119C34.7662 56.1823 34.9423 55.7553 35.1264 55.3312L34.2091 54.933ZM32.7297 58.9326C32.4499 59.8399 32.2041 60.756 31.9925 61.6791L32.9672 61.9026C33.1734 61.0035 33.4128 60.111 33.6853 59.2272L32.7297 58.9326ZM31.4593 64.4723C31.316 65.4097 31.2071 66.352 31.1331 67.2973L32.13 67.3754C32.2022 66.4545 32.3082 65.5366 32.4478 64.6235L31.4593 64.4723ZM31.0156 70.1386C31.0113 71.0855 31.0418 72.0336 31.1073 72.9808L32.105 72.9117C32.0411 71.989 32.0114 71.0655 32.0155 70.1431L31.0156 70.1386ZM31.408 75.8086C31.4754 76.2772 31.5514 76.7452 31.6362 77.2123L32.6201 77.0337C32.5375 76.5787 32.4635 76.1228 32.3978 75.6663L31.408 75.8086ZM31.6362 77.2123C31.721 77.6793 31.8142 78.1442 31.9159 78.6066L32.8925 78.3919C32.7935 77.9415 32.7027 77.4886 32.6201 77.0337L31.6362 77.2123ZM32.6282 81.3597C32.8997 82.2695 33.2043 83.1678 33.5411 84.0529L34.4757 83.6972C34.1476 82.835 33.8509 81.96 33.5864 81.0737L32.6282 81.3597ZM34.6496 86.6716C35.0512 87.5306 35.4842 88.3745 35.9478 89.2017L36.8201 88.7127C36.3685 87.907 35.9467 87.0849 35.5556 86.2481L34.6496 86.6716ZM37.4286 91.6294C37.9512 92.4192 38.5032 93.1905 39.084 93.9417L39.8751 93.33C39.3094 92.5983 38.7716 91.8469 38.2626 91.0776L37.4286 91.6294ZM40.905 96.1258C41.2214 96.4781 41.5446 96.8249 41.8746 97.1662L42.5935 96.4711C42.2721 96.1386 41.9572 95.8008 41.649 95.4576L40.905 96.1258ZM32.1282 77.123L33.1121 76.9444L32.1282 77.123ZM48.9968 38.2583L48.4553 37.4176L48.9968 38.2583ZM70.2856 32.189L70.3024 31.1891L70.2856 32.189ZM91.3584 38.97L90.789 39.792L91.3584 38.97ZM105.113 56.3156L104.182 56.6827L105.113 56.3156ZM106.912 78.3794L107.889 78.5909L107.889 78.5909L106.912 78.3794ZM97.8623 97.4231L98.5551 96.702L97.1129 95.3164L96.4201 96.0375L97.8623 97.4231ZM98.2399 93.9981L97.602 94.7682L99.1423 96.044L99.7802 95.2739L98.2399 93.9981ZM101.535 92.9894L102.114 92.1744L100.484 91.0154L99.9048 91.8304L101.535 92.9894ZM101.406 89.546L100.888 90.4014L102.598 91.4374L103.116 90.582L101.406 89.546ZM104.517 88.0647L104.97 87.1736L103.188 86.2663L102.734 87.1574L104.517 88.0647ZM103.884 84.6776L103.497 85.5997L105.341 86.3735L105.728 85.4513L103.884 84.6776ZM106.744 82.7559L107.062 81.8078L105.166 81.1718L104.848 82.1199L106.744 82.7559ZM105.621 79.4983L105.374 80.4672L107.311 80.9619L107.559 79.993L105.621 79.4983ZM108.168 77.1777L108.344 76.1932L106.375 75.8423L106.199 76.8268L108.168 77.1777ZM106.579 74.1201L106.477 75.1148L108.466 75.3198L108.569 74.3251L106.579 74.1201ZM108.758 71.4508L108.787 70.4513L106.788 70.3931L106.759 71.3927L108.758 71.4508ZM106.738 68.6595L106.783 69.6585L108.781 69.5694L108.736 68.5704L106.738 68.6595ZM108.502 65.6994L108.384 64.7064L106.398 64.9422L106.516 65.9352L108.502 65.6994ZM106.094 63.2347L106.285 64.2164L108.248 63.8351L108.057 62.8534L106.094 63.2347ZM107.404 60.0479L107.142 59.0829L105.212 59.6076L105.474 60.5726L107.404 60.0479ZM104.661 57.9632L104.993 58.9063L106.879 58.241L106.547 57.2979L104.661 57.9632ZM105.489 54.6185L105.088 53.7025L103.256 54.5047L103.657 55.4207L105.489 54.6185ZM102.47 52.959L102.937 53.843L104.705 52.9082L104.238 52.0242L102.47 52.959ZM102.798 49.5289L102.267 48.6817L100.573 49.744L101.104 50.5913L102.798 49.5289ZM99.5678 48.3305L100.16 49.1364L101.772 47.9522L101.18 47.1464L99.5678 48.3305ZM99.3899 44.8893L98.7402 44.1291L97.2199 45.4286L97.8696 46.1888L99.3899 44.8893ZM96.0184 44.1778L96.7223 44.8881L98.1429 43.4803L97.439 42.77L96.0184 44.1778ZM95.3375 40.8L94.5832 40.1434L93.2701 41.6519L94.0243 42.3085L95.3375 40.8ZM91.8981 40.5909L92.6986 41.1902L93.8972 39.5892L93.0967 38.9899L91.8981 40.5909ZM90.7289 37.3496L89.8865 36.8107L88.8088 38.4956L89.6512 39.0344L90.7289 37.3496ZM87.296 37.6474L88.1758 38.1228L89.1266 36.3632L88.2468 35.8878L87.296 37.6474ZM85.6639 34.6127L84.7515 34.2033L83.9328 36.0281L84.8451 36.4374L85.6639 34.6127ZM82.3119 35.4111L83.2519 35.7522L83.9342 33.8722L82.9941 33.531L82.3119 35.4111ZM80.2521 32.6487L79.2895 32.3776L78.7474 34.3027L79.7099 34.5738L80.2521 32.6487ZM77.0535 33.9302L78.0334 34.1297L78.4325 32.1699L77.4526 31.9704L77.0535 33.9302ZM74.6107 31.4999L73.6188 31.373L73.365 33.3569L74.3569 33.4838L74.6107 31.4999ZM71.6348 33.2369L72.6334 33.2905L72.7405 31.2934L71.742 31.2398L71.6348 33.2369ZM68.8619 31.1914L67.8621 31.2114L67.9021 33.211L68.9019 33.191L68.8619 31.1914ZM66.173 33.3463L67.1686 33.2528L66.9816 31.2615L65.986 31.355L66.173 33.3463ZM63.1299 31.7298L62.1439 31.8963L62.4769 33.8684L63.4629 33.7019L63.1299 31.7298ZM60.7864 34.2559L61.7575 34.0173L61.2803 32.075L60.3092 32.3136L60.7864 34.2559ZM57.5391 33.1034L56.5881 33.4127L57.2069 35.3146L58.1578 35.0052L57.5391 33.1034ZM55.5915 35.9459L56.5171 35.5675L55.7601 33.7162L54.8345 34.0947L55.5915 35.9459ZM52.2102 35.2824L51.315 35.728L52.2061 37.5185L53.1013 37.0729L52.2102 35.2824ZM50.7009 38.38L51.5609 37.8698L50.5405 36.1497L49.6804 36.6599L50.7009 38.38ZM47.2588 38.2198L46.4386 38.7919L47.5828 40.4323L48.403 39.8602L47.2588 38.2198ZM46.2203 41.5053L46.9961 40.8744L45.7344 39.3227L44.9585 39.9536L46.2203 41.5053ZM42.792 41.8519L42.0646 42.5382L43.4371 43.9929L44.1645 43.3066L42.792 41.8519ZM42.2468 45.2543L42.9217 44.5164L41.4459 43.1666L40.771 43.9045L42.2468 45.2543ZM38.9065 46.1001L38.2877 46.8857L39.8588 48.1233L40.4776 47.3377L38.9065 46.1001ZM38.8664 49.5456L39.4257 48.7167L37.7678 47.598L37.2085 48.427L38.8664 49.5456ZM35.6863 50.8725L35.1895 51.7403L36.9252 52.734L37.422 51.8661L35.6863 50.8725ZM36.1523 54.2866L36.5839 53.3845L34.7798 52.5213L34.3482 53.4233L36.1523 54.2866ZM33.2013 56.0657L32.8372 56.997L34.6999 57.7253L35.064 56.7939L33.2013 56.0657ZM34.1631 59.3745L34.4577 58.4189L32.5465 57.8296L32.2519 58.7852L34.1631 59.3745ZM31.5051 61.5673L31.2816 62.542L33.231 62.989L33.4545 62.0143L31.5051 61.5673ZM32.9421 64.6992L33.0933 63.7106L31.1163 63.4082L30.9651 64.3967L32.9421 64.6992ZM30.6346 67.2582L30.5565 68.2552L32.5504 68.4114L32.6285 67.4144L30.6346 67.2582ZM32.5155 70.1454L32.5201 69.1454L30.5201 69.1363L30.5156 70.1363L32.5155 70.1454ZM30.6085 73.0153L30.6776 74.0129L32.6728 73.8748L32.6038 72.8772L30.6085 73.0153ZM32.8928 75.5952L32.7505 74.6054L30.7708 74.8899L30.9131 75.8797L32.8928 75.5952ZM31.4275 78.7139L31.6422 79.6906L33.5956 79.2613L33.3809 78.2846L31.4275 78.7139ZM34.0655 80.9307L33.7796 79.9725L31.8631 80.5444L32.149 81.5026L34.0655 80.9307ZM33.0738 84.2307L33.4294 85.1653L35.2987 84.454L34.943 83.5193L33.0738 84.2307ZM36.0085 86.0364L35.585 85.1305L33.7732 85.9774L34.1967 86.8833L36.0085 86.0364ZM35.5117 89.4462L36.0006 90.3185L37.7453 89.3406L37.2563 88.4683L35.5117 89.4462ZM38.6796 90.8017L38.1278 89.9678L36.4598 91.0713L37.0116 91.9053L38.6796 90.8017ZM38.6885 94.2475L39.3001 95.0386L40.8824 93.8153L40.2707 93.0242L38.6885 94.2475ZM42.021 95.1235L41.3528 94.3796L39.8648 95.716L40.533 96.4599L42.021 95.1235ZM96.8453 98.4433C97.191 98.1091 97.53 97.769 97.8623 97.4231L96.4201 96.0375C96.1048 96.3656 95.7831 96.6884 95.4551 97.0056L96.8453 98.4433ZM99.7802 95.2739C100.394 94.5332 100.979 93.7711 101.535 92.9894L99.9048 91.8304C99.3773 92.5721 98.822 93.2953 98.2399 93.9981L99.7802 95.2739ZM103.116 90.582C103.614 89.7604 104.081 88.9207 104.517 88.0647L102.734 87.1574C102.321 87.9697 101.878 88.7664 101.406 89.546L103.116 90.582ZM105.728 85.4513C106.099 84.5668 106.438 83.6677 106.744 82.7559L104.848 82.1199C104.558 82.9852 104.236 83.8383 103.884 84.6776L105.728 85.4513ZM107.559 79.993C107.677 79.5283 107.788 79.0609 107.889 78.5909L105.935 78.1679C105.838 78.6138 105.734 79.0573 105.621 79.4983L107.559 79.993ZM107.889 78.5909C107.991 78.121 108.084 77.6498 108.168 77.1777L106.199 76.8268C106.119 77.2748 106.031 77.7219 105.935 78.1679L107.889 78.5909ZM108.569 74.3251C108.667 73.3684 108.731 72.4097 108.758 71.4508L106.759 71.3927C106.733 72.3025 106.673 73.2123 106.579 74.1201L108.569 74.3251ZM108.736 68.5704C108.693 67.6109 108.615 66.6532 108.502 65.6994L106.516 65.9352C106.623 66.8403 106.697 67.749 106.738 68.6595L108.736 68.5704ZM108.057 62.8534C107.874 61.9118 107.657 60.976 107.404 60.0479L105.474 60.5726C105.714 61.4532 105.92 62.3412 106.094 63.2347L108.057 62.8534ZM106.547 57.2979C106.387 56.8457 106.219 56.3958 106.043 55.9485L104.182 56.6827C104.35 57.1071 104.509 57.534 104.661 57.9632L106.547 57.2979ZM106.043 55.9485C105.866 55.5012 105.682 55.0579 105.489 54.6185L103.657 55.4207C103.84 55.8376 104.015 56.2583 104.182 56.6827L106.043 55.9485ZM104.238 52.0242C103.788 51.1739 103.308 50.3417 102.798 49.5289L101.104 50.5913C101.587 51.3625 102.043 52.1522 102.47 52.959L104.238 52.0242ZM101.18 47.1464C100.611 46.3723 100.014 45.6194 99.3899 44.8893L97.8696 46.1888C98.4618 46.8816 99.0282 47.596 99.5678 48.3305L101.18 47.1464ZM97.439 42.77C96.7638 42.0887 96.0629 41.4315 95.3375 40.8L94.0243 42.3085C94.7126 42.9077 95.3777 43.5313 96.0184 44.1778L97.439 42.77ZM93.0967 38.9899C92.7128 38.7025 92.3231 38.4218 91.9279 38.1479L90.789 39.792C91.164 40.0518 91.5338 40.3182 91.8981 40.5909L93.0967 38.9899ZM91.9279 38.1479C91.5326 37.8741 91.1329 37.608 90.7289 37.3496L89.6512 39.0344C90.0346 39.2796 90.4139 39.5322 90.789 39.792L91.9279 38.1479ZM88.2468 35.8878C87.4006 35.4306 86.539 35.0054 85.6639 34.6127L84.8451 36.4374C85.6756 36.81 86.4931 37.2135 87.296 37.6474L88.2468 35.8878ZM82.9941 33.531C82.0913 33.2034 81.1766 32.909 80.2521 32.6487L79.7099 34.5738C80.5872 34.8209 81.4551 35.1001 82.3119 35.4111L82.9941 33.531ZM77.4526 31.9704C76.5126 31.779 75.5647 31.622 74.6107 31.4999L74.3569 33.4838C75.2622 33.5996 76.1616 33.7486 77.0535 33.9302L77.4526 31.9704ZM71.742 31.2398C71.2631 31.2141 70.7831 31.1972 70.3024 31.1891L70.2688 33.1888C70.725 33.1965 71.1804 33.2126 71.6348 33.2369L71.742 31.2398ZM70.3024 31.1891C69.8216 31.181 69.3413 31.1818 68.8619 31.1914L68.9019 33.191C69.3569 33.1819 69.8126 33.1812 70.2688 33.1888L70.3024 31.1891ZM65.986 31.355C65.0284 31.445 64.0758 31.5701 63.1299 31.7298L63.4629 33.7019C64.3604 33.5503 65.2644 33.4316 66.173 33.3463L65.986 31.355ZM60.3092 32.3136C59.3764 32.5428 58.4524 32.8062 57.5391 33.1034L58.1578 35.0052C59.0245 34.7233 59.9013 34.4733 60.7864 34.2559L60.3092 32.3136ZM54.8345 34.0947C53.9466 34.4578 53.0713 34.8539 52.2102 35.2824L53.1013 37.0729C53.9184 36.6663 54.749 36.2905 55.5915 35.9459L54.8345 34.0947ZM49.6804 36.6599C49.2679 36.9046 48.8595 37.1572 48.4553 37.4176L49.5383 39.0989C49.9219 38.8519 50.3095 38.6122 50.7009 38.38L49.6804 36.6599ZM48.4553 37.4176C48.051 37.678 47.6522 37.9454 47.2588 38.2198L48.403 39.8602C48.7762 39.5998 49.1547 39.346 49.5383 39.0989L48.4553 37.4176ZM44.9585 39.9536C44.2123 40.5604 43.4897 41.1936 42.792 41.8519L44.1645 43.3066C44.8265 42.682 45.5122 42.0811 46.2203 41.5053L44.9585 39.9536ZM40.771 43.9045C40.1227 44.6132 39.5008 45.3456 38.9065 46.1001L40.4776 47.3377C41.0415 46.6218 41.6317 45.9268 42.2468 45.2543L40.771 43.9045ZM37.2085 48.427C36.672 49.2221 36.1641 50.0378 35.6863 50.8725L37.422 51.8661C37.8754 51.0741 38.3573 50.3001 38.8664 49.5456L37.2085 48.427ZM34.3482 53.4233C34.1412 53.8559 33.9418 54.2929 33.7504 54.7339L35.5851 55.5302C35.7667 55.1117 35.9558 54.6971 36.1523 54.2866L34.3482 53.4233ZM33.7504 54.7339C33.559 55.175 33.3759 55.619 33.2013 56.0657L35.064 56.7939C35.2297 56.3701 35.4034 55.9488 35.5851 55.5302L33.7504 54.7339ZM32.2519 58.7852C31.9685 59.7043 31.7195 60.6323 31.5051 61.5673L33.4545 62.0143C33.658 61.1272 33.8942 60.2466 34.1631 59.3745L32.2519 58.7852ZM30.9651 64.3967C30.8199 65.3462 30.7096 66.3007 30.6346 67.2582L32.6285 67.4144C32.6997 66.5058 32.8043 65.6001 32.9421 64.6992L30.9651 64.3967ZM30.5156 70.1363C30.5112 71.0955 30.5421 72.0558 30.6085 73.0153L32.6038 72.8772C32.5407 71.9668 32.5114 71.0555 32.5155 70.1454L30.5156 70.1363ZM30.9131 75.8797C30.9813 76.3544 31.0584 76.8284 31.1442 77.3016L33.1121 76.9444C33.0306 76.4954 32.9575 76.0456 32.8928 75.5952L30.9131 75.8797ZM31.1442 77.3016C31.2301 77.7747 31.3246 78.2455 31.4275 78.7139L33.3809 78.2846C33.2832 77.8401 33.1936 77.3933 33.1121 76.9444L31.1442 77.3016ZM32.149 81.5026C32.4241 82.4243 32.7326 83.3342 33.0738 84.2307L34.943 83.5193C34.6193 82.6687 34.3265 81.8052 34.0655 80.9307L32.149 81.5026ZM34.1967 86.8833C34.6034 87.7534 35.042 88.6083 35.5117 89.4462L37.2563 88.4683C36.8107 87.6732 36.3945 86.8621 36.0085 86.0364L34.1967 86.8833ZM37.0116 91.9053C37.5409 92.7053 38.1002 93.4866 38.6885 94.2475L40.2707 93.0242C39.7125 92.3022 39.1818 91.5608 38.6796 90.8017L37.0116 91.9053ZM40.533 96.4599C40.8535 96.8167 41.1809 97.1681 41.5152 97.5137L42.9529 96.1235C42.6358 95.7955 42.3251 95.4621 42.021 95.1235L40.533 96.4599Z" fill="url(#paint1_linear)"/>
<path fill-rule="evenodd" clip-rule="evenodd" d="M75.4058 46.1915C86.0839 48.8343 94 58.4802 94 69.975C94 83.5059 83.031 94.475 69.5 94.475C55.969 94.475 45 83.5059 45 69.975C45 57.9938 53.6003 48.0212 64.9642 45.894L70.0991 37L75.4058 46.1915Z" fill="#102E4A"/>
<path d="M55.4334 64.3511L56.0114 66.6267L58.2147 66.0849V76H60.9599V63.2675H59.0636L55.4334 64.3511ZM74.0964 69.2997C74.0964 66.7893 73.5005 65.4167 72.5974 64.5137C71.6403 63.5565 70.6469 63.1411 68.9493 63.1411C66.0958 63.1411 64.1272 65.0194 64.1272 67.5839C64.1272 70.1665 65.8971 71.6836 68.6423 71.6836C69.7439 71.6836 70.5928 71.3405 71.2068 70.8167C71.0262 72.5144 70.1954 73.6883 68.6423 73.6883C67.5767 73.6883 66.8001 73.3451 65.879 72.6047L64.4162 74.7177C65.4817 75.6027 66.7279 76.2167 68.57 76.2167C72.164 76.2167 74.0964 73.4174 74.0964 69.2997ZM71.261 67.4756C71.261 68.5772 70.4663 69.3719 69.0938 69.3719C67.7212 69.3719 66.8904 68.5953 66.8904 67.4575C66.8904 66.3197 67.667 65.5251 69.0396 65.5251C70.4302 65.5251 71.261 66.3378 71.261 67.4756ZM83.0292 66.3017C83.0292 64.6582 81.5483 63.2495 79.9048 63.2495C78.2613 63.2495 76.7804 64.6582 76.7804 66.3017C76.7804 67.9451 78.2613 69.3538 79.9048 69.3538C81.5483 69.3538 83.0292 67.9451 83.0292 66.3017ZM81.5663 66.3017C81.5663 67.2047 80.862 67.9993 79.9048 67.9993C78.9476 67.9993 78.2432 67.2047 78.2432 66.3017C78.2432 65.3986 78.9476 64.604 79.9048 64.604C80.862 64.604 81.5663 65.3986 81.5663 66.3017Z" fill="white"/>
<defs>
<linearGradient id="paint0_linear" x1="114.512" y1="95.3405" x2="25.3113" y2="43.8404" gradientUnits="userSpaceOnUse">
<stop stop-color="#CE474E"/>
<stop offset="1" stop-color="#2C76BA"/>
</linearGradient>
<linearGradient id="paint1_linear" x1="102.676" y1="89.3733" x2="37.2827" y2="50.1394" gradientUnits="userSpaceOnUse">
<stop stop-color="#A2363B"/>
<stop offset="1" stop-color="#2C5DBA"/>
</linearGradient>
</defs>
</svg>
