<?xml version="1.0" encoding="UTF-8"?>
<svg xmlns="http://www.w3.org/2000/svg" xmlns:xlink="http://www.w3.org/1999/xlink" width="1001pt" height="189pt" viewBox="0 0 1001 189" version="1.1">
<defs>
<clipPath id="clip1">
  <path d="M 0 21.253906 L 985.382812 21.253906 L 985.382812 189 L 0 189 Z M 0 21.253906 "/>
</clipPath>
<filter id="alpha" filterUnits="objectBoundingBox" x="0%" y="0%" width="100%" height="100%">
  <feColorMatrix type="matrix" in="SourceGraphic" values="0 0 0 0 1 0 0 0 0 1 0 0 0 0 1 0 0 0 1 0"/>
</filter>
<mask id="mask0">
  <g filter="url(#alpha)">
<rect x="0" y="0" width="1001" height="189" style="fill:rgb(0%,0%,0%);fill-opacity:0.239216;stroke:none;"/>
  </g>
</mask>
<clipPath id="clip2">
  <rect x="0" y="0" width="1001" height="189"/>
</clipPath>
<g id="surface5" clip-path="url(#clip2)">
<path style=" stroke:none;fill-rule:nonzero;fill:rgb(6.27451%,18.039216%,29.019608%);fill-opacity:1;" d="M 957.21875 45.019531 C 971.300781 45.019531 971.300781 21.253906 985.382812 21.253906 L 985.382812 189 L -0.394531 189 L -0.394531 173.191406 C 14.859375 173.191406 13.6875 181.933594 27.769531 181.933594 C 41.851562 181.933594 41.851562 157.105469 55.933594 157.105469 C 70.015625 157.105469 67.667969 164.746094 84.097656 164.746094 C 100.527344 164.746094 95.835938 179.046875 112.265625 179.046875 C 128.695312 179.046875 125.171875 173.617188 140.429688 173.617188 C 155.6875 173.617188 152.753906 147.726562 168.59375 147.726562 C 184.4375 147.726562 180.328125 156.171875 196.757812 156.171875 C 213.191406 156.171875 210.253906 167.800781 224.925781 167.800781 C 239.59375 167.800781 237.246094 129.179688 253.089844 129.179688 C 268.933594 129.179688 267.171875 142.550781 281.257812 142.550781 C 295.335938 142.550781 292.992188 123.832031 309.417969 123.832031 C 325.851562 123.832031 322.328125 135.800781 337.585938 135.800781 C 352.84375 135.800781 350.496094 86.867188 365.75 86.867188 C 381.007812 86.867188 378.074219 100.492188 393.917969 100.492188 C 409.757812 100.492188 405.652344 109.488281 422.082031 109.488281 C 438.511719 109.488281 434.402344 86.144531 450.246094 86.144531 C 466.089844 86.144531 461.980469 97.605469 478.410156 97.605469 C 494.839844 97.605469 491.90625 78.71875 506.578125 78.71875 C 521.246094 78.71875 519.484375 47.144531 534.742188 47.144531 C 549.996094 47.144531 547.648438 99.980469 562.90625 99.980469 C 578.164062 99.980469 576.402344 62.972656 591.074219 62.972656 C 605.742188 62.972656 602.804688 79.183594 619.238281 79.183594 C 635.667969 79.183594 632.144531 93.742188 647.402344 93.742188 C 662.660156 93.742188 660.898438 69.636719 675.566406 69.636719 C 690.238281 69.636719 689.0625 92.554688 703.734375 92.554688 C 718.402344 92.554688 716.640625 82.367188 731.898438 82.367188 C 747.152344 82.367188 744.804688 61.359375 760.0625 61.359375 C 775.320312 61.359375 772.972656 69.761719 788.226562 69.761719 C 803.484375 69.761719 802.308594 39.078125 816.394531 39.078125 C 830.476562 39.078125 828.128906 81.136719 844.558594 81.136719 C 860.988281 81.136719 856.882812 52.574219 872.722656 52.574219 C 888.566406 52.574219 886.21875 64.332031 900.890625 64.332031 C 915.558594 64.332031 914.382812 35.046875 929.054688 35.046875 C 943.722656 35.046875 943.136719 45.019531 957.21875 45.019531 Z M 957.21875 45.019531 "/>
</g>
<clipPath id="clip3">
  <path d="M 0 21.175781 L 985.382812 21.175781 L 985.382812 189 L 0 189 Z M 0 21.175781 "/>
</clipPath>
</defs>
<g id="surface1">
<g clip-path="url(#clip1)" clip-rule="nonzero">
<use xlink:href="#surface5" mask="url(#mask0)"/>
</g>
<g clip-path="url(#clip3)" clip-rule="nonzero">
<path style="fill:none;stroke-width:0.751492;stroke-linecap:butt;stroke-linejoin:miter;stroke:rgb(6.27451%,18.039216%,29.019608%);stroke-opacity:1;stroke-miterlimit:4;" d="M 630.999383 13.606998 C 621.981819 13.606998 621.981819 28.822028 612.964254 28.822028 C 603.94669 28.822028 604.321901 22.437417 594.929126 22.437417 C 585.533849 22.437417 586.286772 41.186115 576.893997 41.186115 C 567.49872 41.186115 569.002064 33.658627 558.856366 33.658627 C 548.71317 33.658627 551.342146 51.944672 540.821237 51.944672 C 530.300329 51.944672 531.803673 25.018271 522.786108 25.018271 C 513.766043 25.018271 514.518965 44.664765 504.748478 44.664765 C 494.980492 44.664765 496.483836 39.282986 486.713349 39.282986 C 476.942862 39.282986 478.446206 52.732432 468.67822 52.732432 C 458.907733 52.732432 460.035866 59.254588 450.643091 59.254588 C 441.247815 59.254588 442.000738 44.582238 432.605461 44.582238 C 423.212686 44.582238 424.340819 60.01484 414.570332 60.01484 C 404.799845 60.01484 407.056112 50.696759 396.535203 50.696759 C 386.011793 50.696759 387.892849 40.315828 378.500074 40.315828 C 369.104798 40.315828 370.232931 64.00866 360.462444 64.00866 C 350.691956 64.00866 352.195301 30.182478 342.427315 30.182478 C 332.656828 30.182478 333.784961 50.39666 324.392186 50.39666 C 314.996909 50.39666 316.875464 62.488157 306.354556 62.488157 C 295.833647 62.488157 298.465125 55.150732 288.319427 55.150732 C 278.173729 55.150732 280.805207 70.095672 270.284298 70.095672 C 259.763389 70.095672 262.392365 64.336268 252.249169 64.336268 C 242.103471 64.336268 243.982026 55.613385 234.211538 55.613385 C 224.443553 55.613385 225.946897 86.941241 216.17641 86.941241 C 206.405922 86.941241 208.662189 79.278708 198.138779 79.278708 C 187.61787 79.278708 189.121215 91.262669 180.106152 91.262669 C 171.086086 91.262669 172.214219 82.70234 162.068521 82.70234 C 151.922823 82.70234 153.426168 107.428013 144.033392 107.428013 C 134.638116 107.428013 136.519172 99.983052 125.995762 99.983052 C 115.474853 99.983052 118.106331 94.576265 107.960633 94.576265 C 97.817436 94.576265 99.695992 111.151744 89.925504 111.151744 C 80.155017 111.151744 82.411284 114.627894 71.890375 114.627894 C 61.369466 114.627894 64.373654 105.472367 53.852745 105.472367 C 43.331836 105.472367 44.83518 100.58075 35.817616 100.58075 C 26.800052 100.58075 26.800052 116.476004 17.782487 116.476004 C 8.764923 116.476004 9.515344 110.879154 -0.252642 110.879154 " transform="matrix(1.561622,0,0,1.561983,0,0)"/>
</g>
<path style="fill-rule:nonzero;fill:rgb(6.27451%,18.039216%,29.019608%);fill-opacity:1;stroke-width:0.751492;stroke-linecap:butt;stroke-linejoin:miter;stroke:rgb(100%,100%,100%);stroke-opacity:1;stroke-miterlimit:4;" d="M 3.751698 -0.376533 C 5.615245 -0.376533 7.126093 1.136468 7.126093 2.999583 C 7.126093 4.8652 5.615245 6.3757 3.751698 6.3757 C 1.888151 6.3757 0.374801 4.8652 0.374801 2.999583 C 0.374801 1.136468 1.888151 -0.376533 3.751698 -0.376533 Z M 3.751698 -0.376533 " transform="matrix(-1.561622,0,0,1.561983,539.175142,42.959231)"/>
<path style="fill-rule:nonzero;fill:rgb(6.27451%,18.039216%,29.019608%);fill-opacity:1;stroke-width:0.751492;stroke-linecap:butt;stroke-linejoin:miter;stroke:rgb(100%,100%,100%);stroke-opacity:1;stroke-miterlimit:4;" d="M 3.751499 -0.375913 C 5.615045 -0.375913 7.128395 1.134587 7.128395 3.000204 C 7.128395 4.863319 5.615045 6.37632 3.751499 6.37632 C 1.887952 6.37632 0.374602 4.863319 0.374602 3.000204 C 0.374602 1.134587 1.887952 -0.375913 3.751499 -0.375913 Z M 3.751499 -0.375913 " transform="matrix(-1.561622,0,0,1.561983,518.87405,69.51295)"/>
<path style="fill-rule:nonzero;fill:rgb(6.27451%,18.039216%,29.019608%);fill-opacity:1;stroke-width:0.751492;stroke-linecap:butt;stroke-linejoin:miter;stroke:rgb(100%,100%,100%);stroke-opacity:1;stroke-miterlimit:4;" d="M 3.75217 -0.376615 C 5.615717 -0.376615 7.126565 1.136385 7.126565 2.999501 C 7.126565 4.865118 5.615717 6.375617 3.75217 6.375617 C 1.886122 6.375617 0.375274 4.865118 0.375274 2.999501 C 0.375274 1.136385 1.886122 -0.376615 3.75217 -0.376615 Z M 3.75217 -0.376615 " transform="matrix(-1.561622,0,0,1.561983,489.203223,89.818736)"/>
<path style="fill-rule:nonzero;fill:rgb(6.27451%,18.039216%,29.019608%);fill-opacity:1;stroke-width:0.751492;stroke-linecap:butt;stroke-linejoin:miter;stroke:rgb(100%,100%,100%);stroke-opacity:1;stroke-miterlimit:4;" d="M 3.752315 -0.375434 C 5.615862 -0.375434 7.12671 1.135065 7.12671 3.000682 C 7.12671 4.863798 5.615862 6.376798 3.752315 6.376798 C 1.886267 6.376798 0.375419 4.863798 0.375419 3.000682 C 0.375419 1.135065 1.886267 -0.375434 3.752315 -0.375434 Z M 3.752315 -0.375434 " transform="matrix(-1.561622,0,0,1.561983,454.043293,81.22314)"/>
<path style="fill-rule:nonzero;fill:rgb(6.27451%,18.039216%,29.019608%);fill-opacity:1;stroke-width:0.751492;stroke-linecap:butt;stroke-linejoin:miter;stroke:rgb(100%,100%,100%);stroke-opacity:1;stroke-miterlimit:4;" d="M 3.751609 -0.375806 C 5.615155 -0.375806 7.126004 1.134693 7.126004 3.00031 C 7.126004 4.863426 5.615155 6.376426 3.751609 6.376426 C 1.888062 6.376426 0.374712 4.863426 0.374712 3.00031 C 0.374712 1.134693 1.888062 -0.375806 3.751609 -0.375806 Z M 3.751609 -0.375806 " transform="matrix(-1.561622,0,0,1.561983,421.249222,103.090909)"/>
<path style="fill-rule:nonzero;fill:rgb(6.27451%,18.039216%,29.019608%);fill-opacity:1;stroke-width:0.751492;stroke-linecap:butt;stroke-linejoin:miter;stroke:rgb(100%,100%,100%);stroke-opacity:1;stroke-miterlimit:4;" d="M 3.75228 -0.375289 C 5.615827 -0.375289 7.126675 1.13521 7.126675 3.000827 C 7.126675 4.863943 5.615827 6.376943 3.75228 6.376943 C 1.886232 6.376943 0.375383 4.863943 0.375383 3.000827 C 0.375383 1.13521 1.886232 -0.375289 3.75228 -0.375289 Z M 3.75228 -0.375289 " transform="matrix(-1.561622,0,0,1.561983,391.578395,93.719008)"/>
<path style="fill-rule:nonzero;fill:rgb(6.27451%,18.039216%,29.019608%);fill-opacity:1;stroke-width:0.751492;stroke-linecap:butt;stroke-linejoin:miter;stroke:rgb(100%,100%,100%);stroke-opacity:1;stroke-miterlimit:4;" d="M 3.752444 -0.375517 C 5.61599 -0.375517 7.126839 1.134983 7.126839 3.000599 C 7.126839 4.863715 5.61599 6.376715 3.752444 6.376715 C 1.886396 6.376715 0.375547 4.863715 0.375547 3.000599 C 0.375547 1.134983 1.886396 -0.375517 3.752444 -0.375517 Z M 3.752444 -0.375517 " transform="matrix(-1.561622,0,0,1.561983,349.414588,128.082645)"/>
<path style="fill-rule:nonzero;fill:rgb(6.27451%,18.039216%,29.019608%);fill-opacity:1;stroke-width:0.751492;stroke-linecap:butt;stroke-linejoin:miter;stroke:rgb(100%,100%,100%);stroke-opacity:1;stroke-miterlimit:4;" d="M 3.751738 -0.374669 C 5.615284 -0.374669 7.126133 1.13583 7.126133 2.998946 C 7.126133 4.864563 5.615284 6.375062 3.751738 6.375062 C 1.888191 6.375062 0.374841 4.864563 0.374841 2.998946 C 0.374841 1.13583 1.888191 -0.374669 3.751738 -0.374669 Z M 3.751738 -0.374669 " transform="matrix(-1.561622,0,0,1.561983,316.620516,120.272727)"/>
<path style="fill-rule:nonzero;fill:rgb(6.27451%,18.039216%,29.019608%);fill-opacity:1;stroke-width:0.751492;stroke-linecap:butt;stroke-linejoin:miter;stroke:rgb(100%,100%,100%);stroke-opacity:1;stroke-miterlimit:4;" d="M 3.750723 -0.376364 C 5.616771 -0.376364 7.127619 1.136636 7.127619 2.999752 C 7.127619 4.865369 5.616771 6.375868 3.750723 6.375868 C 1.887176 6.375868 0.376328 4.865369 0.376328 2.999752 C 0.376328 1.136636 1.887176 -0.376364 3.750723 -0.376364 Z M 3.750723 -0.376364 " transform="matrix(-1.561622,0,0,1.561983,291.634557,135.892562)"/>
<path style="fill-rule:nonzero;fill:rgb(6.27451%,18.039216%,29.019608%);fill-opacity:1;stroke-width:0.751492;stroke-linecap:butt;stroke-linejoin:miter;stroke:rgb(100%,100%,100%);stroke-opacity:1;stroke-miterlimit:4;" d="M 3.751956 -0.376178 C 5.615503 -0.376178 7.126351 1.136822 7.126351 2.999938 C 7.126351 4.865555 5.615503 6.376054 3.751956 6.376054 C 1.885908 6.376054 0.37506 4.865555 0.37506 2.999938 C 0.37506 1.136822 1.885908 -0.376178 3.751956 -0.376178 Z M 3.751956 -0.376178 " transform="matrix(-1.561622,0,0,1.561983,260.402108,124.958678)"/>
<path style="fill-rule:nonzero;fill:rgb(6.27451%,18.039216%,29.019608%);fill-opacity:1;stroke-width:0.751492;stroke-linecap:butt;stroke-linejoin:miter;stroke:rgb(100%,100%,100%);stroke-opacity:1;stroke-miterlimit:4;" d="M 3.752065 -0.376075 C 5.615612 -0.376075 7.12646 1.134425 7.12646 3.000041 C 7.12646 4.863157 5.615612 6.376157 3.752065 6.376157 C 1.886017 6.376157 0.375169 4.863157 0.375169 3.000041 C 0.375169 1.134425 1.886017 -0.376075 3.752065 -0.376075 Z M 3.752065 -0.376075 " transform="matrix(-1.561622,0,0,1.561983,232.292903,160.884298)"/>
<path style="fill-rule:nonzero;fill:rgb(6.27451%,18.039216%,29.019608%);fill-opacity:1;stroke-width:0.751492;stroke-linecap:butt;stroke-linejoin:miter;stroke:rgb(100%,100%,100%);stroke-opacity:1;stroke-miterlimit:4;" d="M 3.750797 -0.375558 C 5.616845 -0.375558 7.127694 1.134941 7.127694 3.000558 C 7.127694 4.863674 5.616845 6.376674 3.750797 6.376674 C 1.88725 6.376674 0.376402 4.863674 0.376402 3.000558 C 0.376402 1.134941 1.88725 -0.375558 3.750797 -0.375558 Z M 3.750797 -0.375558 " transform="matrix(-1.561622,0,0,1.561983,201.060454,151.512397)"/>
<path style="fill-rule:nonzero;fill:rgb(6.27451%,18.039216%,29.019608%);fill-opacity:1;stroke-width:0.751492;stroke-linecap:butt;stroke-linejoin:miter;stroke:rgb(100%,100%,100%);stroke-opacity:1;stroke-miterlimit:4;" d="M 3.752331 -0.375083 C 5.615878 -0.375083 7.126726 1.135417 7.126726 3.001033 C 7.126726 4.864149 5.615878 6.374649 3.752331 6.374649 C 1.886283 6.374649 0.375435 4.864149 0.375435 3.001033 C 0.375435 1.135417 1.886283 -0.375083 3.752331 -0.375083 Z M 3.752331 -0.375083 " transform="matrix(-1.561622,0,0,1.561983,149.527693,165.570248)"/>
<path style="fill-rule:nonzero;fill:rgb(6.27451%,18.039216%,29.019608%);fill-opacity:1;stroke-width:0.751492;stroke-linecap:butt;stroke-linejoin:miter;stroke:rgb(100%,100%,100%);stroke-opacity:1;stroke-miterlimit:4;" d="M 3.751063 -0.375599 C 5.617111 -0.375599 7.127959 1.1349 7.127959 3.000517 C 7.127959 4.863633 5.617111 6.376633 3.751063 6.376633 C 1.887516 6.376633 0.376668 4.863633 0.376668 3.000517 C 0.376668 1.1349 1.887516 -0.375599 3.751063 -0.375599 Z M 3.751063 -0.375599 " transform="matrix(-1.561622,0,0,1.561983,118.295244,174.942149)"/>
<path style="fill-rule:nonzero;fill:rgb(6.27451%,18.039216%,29.019608%);fill-opacity:1;stroke-width:0.751492;stroke-linecap:butt;stroke-linejoin:miter;stroke:rgb(100%,100%,100%);stroke-opacity:1;stroke-miterlimit:4;" d="M 3.75255 -0.376075 C 5.616096 -0.376075 7.126945 1.134425 7.126945 3.000041 C 7.126945 4.863157 5.616096 6.376157 3.75255 6.376157 C 1.886502 6.376157 0.375653 4.863157 0.375653 3.000041 C 0.375653 1.134425 1.886502 -0.376075 3.75255 -0.376075 Z M 3.75255 -0.376075 " transform="matrix(-1.561622,0,0,1.561983,93.309285,160.884298)"/>
<path style="fill-rule:nonzero;fill:rgb(6.27451%,18.039216%,29.019608%);fill-opacity:1;stroke-width:0.751492;stroke-linecap:butt;stroke-linejoin:miter;stroke:rgb(100%,100%,100%);stroke-opacity:1;stroke-miterlimit:4;" d="M 3.752659 -0.375227 C 5.616206 -0.375227 7.127054 1.135272 7.127054 3.000889 C 7.127054 4.864005 5.616206 6.374504 3.752659 6.374504 C 1.886611 6.374504 0.375762 4.864005 0.375762 3.000889 C 0.375762 1.135272 1.886611 -0.375227 3.752659 -0.375227 Z M 3.752659 -0.375227 " transform="matrix(-1.561622,0,0,1.561983,65.20008,153.07438)"/>
<path style="fill-rule:nonzero;fill:rgb(6.27451%,18.039216%,29.019608%);fill-opacity:1;stroke-width:0.751492;stroke-linecap:butt;stroke-linejoin:miter;stroke:rgb(100%,100%,100%);stroke-opacity:1;stroke-miterlimit:4;" d="M 3.752206 -0.375599 C 5.615753 -0.375599 7.126601 1.1349 7.126601 3.000517 C 7.126601 4.863633 5.615753 6.376633 3.752206 6.376633 C 1.886158 6.376633 0.37531 4.863633 0.37531 3.000517 C 0.37531 1.1349 1.886158 -0.375599 3.752206 -0.375599 Z M 3.752206 -0.375599 " transform="matrix(-1.561622,0,0,1.561983,38.652498,174.942149)"/>
<path style="fill-rule:nonzero;fill:rgb(6.27451%,18.039216%,29.019608%);fill-opacity:1;stroke-width:0.751492;stroke-linecap:butt;stroke-linejoin:miter;stroke:rgb(100%,100%,100%);stroke-opacity:1;stroke-miterlimit:4;" d="M 3.751744 -0.376591 C 5.61529 -0.376591 7.126139 1.136409 7.126139 2.999525 C 7.126139 4.865141 5.61529 6.375641 3.751744 6.375641 C 1.888197 6.375641 0.374847 4.865141 0.374847 2.999525 C 0.374847 1.136409 1.888197 -0.376591 3.751744 -0.376591 Z M 3.751744 -0.376591 " transform="matrix(-1.561622,0,0,1.561983,12.104901,170.256198)"/>
<path style="fill-rule:nonzero;fill:rgb(6.27451%,18.039216%,29.019608%);fill-opacity:1;stroke-width:0.751492;stroke-linecap:butt;stroke-linejoin:miter;stroke:rgb(100%,100%,100%);stroke-opacity:1;stroke-miterlimit:4;" d="M 3.751468 -0.374711 C 5.615015 -0.374711 7.128365 1.135789 7.128365 2.998905 C 7.128365 4.864521 5.615015 6.375021 3.751468 6.375021 C 1.887922 6.375021 0.374572 4.864521 0.374572 2.998905 C 0.374572 1.135789 1.887922 -0.374711 3.751468 -0.374711 Z M 3.751468 -0.374711 " transform="matrix(-1.561622,0,0,1.561983,171.389627,143.702479)"/>
<path style="fill-rule:nonzero;fill:rgb(6.27451%,18.039216%,29.019608%);fill-opacity:1;stroke-width:0.751492;stroke-linecap:butt;stroke-linejoin:miter;stroke:rgb(100%,100%,100%);stroke-opacity:1;stroke-miterlimit:4;" d="M 3.751265 -0.374773 C 5.614812 -0.374773 7.128162 1.135727 7.128162 2.998843 C 7.128162 4.864459 5.614812 6.374959 3.751265 6.374959 C 1.887719 6.374959 0.37687 4.864459 0.37687 2.998843 C 0.37687 1.135727 1.887719 -0.374773 3.751265 -0.374773 Z M 3.751265 -0.374773 " transform="matrix(-1.561622,0,0,1.561983,366.592435,84.347107)"/>
<path style="fill-rule:nonzero;fill:rgb(6.27451%,18.039216%,29.019608%);fill-opacity:1;stroke-width:0.751492;stroke-linecap:butt;stroke-linejoin:miter;stroke:rgb(100%,100%,100%);stroke-opacity:1;stroke-miterlimit:4;" d="M 3.750731 -0.375194 C 5.616779 -0.375194 7.127628 1.135305 7.127628 3.000922 C 7.127628 4.864038 5.616779 6.374537 3.750731 6.374537 C 1.887185 6.374537 0.376336 4.864038 0.376336 3.000922 C 0.376336 1.135305 1.887185 -0.375194 3.750731 -0.375194 Z M 3.750731 -0.375194 " transform="matrix(-1.561622,0,0,1.561983,963.115039,40.777453)"/>
<path style="fill-rule:nonzero;fill:rgb(6.27451%,18.039216%,29.019608%);fill-opacity:1;stroke-width:0.751492;stroke-linecap:butt;stroke-linejoin:miter;stroke:rgb(100%,100%,100%);stroke-opacity:1;stroke-miterlimit:4;" d="M 3.752362 -0.375813 C 5.615908 -0.375813 7.126757 1.134687 7.126757 3.000303 C 7.126757 4.863419 5.615908 6.376419 3.752362 6.376419 C 1.886314 6.376419 0.375465 4.863419 0.375465 3.000303 C 0.375465 1.134687 1.886314 -0.375813 3.752362 -0.375813 Z M 3.752362 -0.375813 " transform="matrix(-1.561622,0,0,1.561983,934.949616,30.766701)"/>
<path style="fill-rule:nonzero;fill:rgb(6.27451%,18.039216%,29.019608%);fill-opacity:1;stroke-width:0.751492;stroke-linecap:butt;stroke-linejoin:miter;stroke:rgb(100%,100%,100%);stroke-opacity:1;stroke-miterlimit:4;" d="M 3.751491 -0.376782 C 5.615037 -0.376782 7.128387 1.136218 7.128387 2.999334 C 7.128387 4.864951 5.615037 6.37545 3.751491 6.37545 C 1.887944 6.37545 0.374594 4.864951 0.374594 2.999334 C 0.374594 1.136218 1.887944 -0.376782 3.751491 -0.376782 Z M 3.751491 -0.376782 " transform="matrix(-1.561622,0,0,1.561983,906.784193,60.209621)"/>
<path style="fill-rule:nonzero;fill:rgb(6.27451%,18.039216%,29.019608%);fill-opacity:1;stroke-width:0.751492;stroke-linecap:butt;stroke-linejoin:miter;stroke:rgb(100%,100%,100%);stroke-opacity:1;stroke-miterlimit:4;" d="M 3.75062 -0.376974 C 5.616668 -0.376974 7.127516 1.136026 7.127516 2.999142 C 7.127516 4.864758 5.616668 6.375258 3.75062 6.375258 C 1.887073 6.375258 0.376225 4.864758 0.376225 2.999142 C 0.376225 1.136026 1.887073 -0.376974 3.75062 -0.376974 Z M 3.75062 -0.376974 " transform="matrix(-1.561622,0,0,1.561983,878.618771,48.432578)"/>
<path style="fill-rule:nonzero;fill:rgb(6.27451%,18.039216%,29.019608%);fill-opacity:1;stroke-width:0.751492;stroke-linecap:butt;stroke-linejoin:miter;stroke:rgb(100%,100%,100%);stroke-opacity:1;stroke-miterlimit:4;" d="M 3.750603 -0.376004 C 5.616651 -0.376004 7.127499 1.134496 7.127499 3.000112 C 7.127499 4.863228 5.616651 6.376228 3.750603 6.376228 C 1.887056 6.376228 0.376207 4.863228 0.376207 3.000112 C 0.376207 1.134496 1.887056 -0.376004 3.750603 -0.376004 Z M 3.750603 -0.376004 " transform="matrix(-1.561622,0,0,1.561983,991.2789,16.634187)"/>
<path style="fill-rule:nonzero;fill:rgb(6.27451%,18.039216%,29.019608%);fill-opacity:1;stroke-width:0.751492;stroke-linecap:butt;stroke-linejoin:miter;stroke:rgb(100%,100%,100%);stroke-opacity:1;stroke-miterlimit:4;" d="M 3.751379 -0.376441 C 5.614926 -0.376441 7.128275 1.13656 7.128275 2.999675 C 7.128275 4.865292 5.614926 6.375792 3.751379 6.375792 C 1.887832 6.375792 0.376984 4.865292 0.376984 2.999675 C 0.376984 1.13656 1.887832 -0.376441 3.751379 -0.376441 Z M 3.751379 -0.376441 " transform="matrix(-1.561622,0,0,1.561983,822.287925,34.888775)"/>
<path style="fill-rule:nonzero;fill:rgb(6.27451%,18.039216%,29.019608%);fill-opacity:1;stroke-width:0.751492;stroke-linecap:butt;stroke-linejoin:miter;stroke:rgb(100%,100%,100%);stroke-opacity:1;stroke-miterlimit:4;" d="M 3.751508 -0.375635 C 5.615054 -0.375635 7.128404 1.134864 7.128404 3.000481 C 7.128404 4.863597 5.615054 6.376597 3.751508 6.376597 C 1.887961 6.376597 0.374611 4.863597 0.374611 3.000481 C 0.374611 1.134864 1.887961 -0.375635 3.751508 -0.375635 Z M 3.751508 -0.375635 " transform="matrix(-1.561622,0,0,1.561983,794.124064,66.098455)"/>
<path style="fill-rule:nonzero;fill:rgb(6.27451%,18.039216%,29.019608%);fill-opacity:1;stroke-width:0.751492;stroke-linecap:butt;stroke-linejoin:miter;stroke:rgb(100%,100%,100%);stroke-opacity:1;stroke-miterlimit:4;" d="M 3.750637 -0.37688 C 5.616685 -0.37688 7.127533 1.13612 7.127533 2.999236 C 7.127533 4.864853 5.616685 6.375352 3.750637 6.375352 C 1.88709 6.375352 0.376242 4.864853 0.376242 2.999236 C 0.376242 1.13612 1.88709 -0.37688 3.750637 -0.37688 Z M 3.750637 -0.37688 " transform="matrix(-1.561622,0,0,1.561983,765.958641,57.854306)"/>
<path style="fill-rule:nonzero;fill:rgb(6.27451%,18.039216%,29.019608%);fill-opacity:1;stroke-width:0.751492;stroke-linecap:butt;stroke-linejoin:miter;stroke:rgb(100%,100%,100%);stroke-opacity:1;stroke-miterlimit:4;" d="M 3.752267 -0.374918 C 5.615814 -0.374918 7.126662 1.135582 7.126662 3.001198 C 7.126662 4.864314 5.615814 6.374814 3.752267 6.374814 C 1.886219 6.374814 0.375371 4.864314 0.375371 3.001198 C 0.375371 1.135582 1.886219 -0.374918 3.752267 -0.374918 Z M 3.752267 -0.374918 " transform="matrix(-1.561622,0,0,1.561983,737.793218,78.464521)"/>
<path style="fill-rule:nonzero;fill:rgb(6.27451%,18.039216%,29.019608%);fill-opacity:1;stroke-width:0.751492;stroke-linecap:butt;stroke-linejoin:miter;stroke:rgb(100%,100%,100%);stroke-opacity:1;stroke-miterlimit:4;" d="M 3.75225 -0.376067 C 5.615797 -0.376067 7.126645 1.134432 7.126645 3.000049 C 7.126645 4.863165 5.615797 6.376165 3.75225 6.376165 C 1.886202 6.376165 0.375353 4.863165 0.375353 3.000049 C 0.375353 1.134432 1.886202 -0.376067 3.75225 -0.376067 Z M 3.75225 -0.376067 " transform="matrix(-1.561622,0,0,1.561983,850.453348,77.28663)"/>
<path style="fill-rule:nonzero;fill:rgb(6.27451%,18.039216%,29.019608%);fill-opacity:1;stroke-width:0.751492;stroke-linecap:butt;stroke-linejoin:miter;stroke:rgb(100%,100%,100%);stroke-opacity:1;stroke-miterlimit:4;" d="M 3.750525 -0.37616 C 5.616573 -0.37616 7.127422 1.13684 7.127422 2.999956 C 7.127422 4.865573 5.616573 6.376072 3.750525 6.376072 C 1.886978 6.376072 0.37613 4.865573 0.37613 2.999956 C 0.37613 1.13684 1.886978 -0.37616 3.750525 -0.37616 Z M 3.750525 -0.37616 " transform="matrix(-1.561622,0,0,1.561983,681.462373,65.509431)"/>
<path style="fill-rule:nonzero;fill:rgb(6.27451%,18.039216%,29.019608%);fill-opacity:1;stroke-width:0.751492;stroke-linecap:butt;stroke-linejoin:miter;stroke:rgb(100%,100%,100%);stroke-opacity:1;stroke-miterlimit:4;" d="M 3.752155 -0.37535 C 5.615702 -0.37535 7.12655 1.135149 7.12655 3.000766 C 7.12655 4.863882 5.615702 6.376882 3.752155 6.376882 C 1.886107 6.376882 0.375259 4.863882 0.375259 3.000766 C 0.375259 1.135149 1.886107 -0.37535 3.752155 -0.37535 Z M 3.752155 -0.37535 " transform="matrix(-1.561622,0,0,1.561983,653.29695,89.652697)"/>
<path style="fill-rule:nonzero;fill:rgb(6.27451%,18.039216%,29.019608%);fill-opacity:1;stroke-width:0.751492;stroke-linecap:butt;stroke-linejoin:miter;stroke:rgb(100%,100%,100%);stroke-opacity:1;stroke-miterlimit:4;" d="M 3.752284 -0.375541 C 5.615831 -0.375541 7.126679 1.134958 7.126679 3.000575 C 7.126679 4.863691 5.615831 6.376691 3.752284 6.376691 C 1.886236 6.376691 0.375388 4.863691 0.375388 3.000575 C 0.375388 1.134958 1.886236 -0.375541 3.752284 -0.375541 Z M 3.752284 -0.375541 " transform="matrix(-1.561622,0,0,1.561983,625.133089,75.520183)"/>
<path style="fill-rule:nonzero;fill:rgb(6.27451%,18.039216%,29.019608%);fill-opacity:1;stroke-width:0.751492;stroke-linecap:butt;stroke-linejoin:miter;stroke:rgb(100%,100%,100%);stroke-opacity:1;stroke-miterlimit:4;" d="M 3.751413 -0.375631 C 5.61496 -0.375631 7.12831 1.134869 7.12831 3.000485 C 7.12831 4.863601 5.61496 6.376602 3.751413 6.376602 C 1.887867 6.376602 0.374517 4.863601 0.374517 3.000485 C 0.374517 1.134869 1.887867 -0.375631 3.751413 -0.375631 Z M 3.751413 -0.375631 " transform="matrix(-1.561622,0,0,1.561983,596.967666,59.032041)"/>
<path style="fill-rule:nonzero;fill:rgb(6.27451%,18.039216%,29.019608%);fill-opacity:1;stroke-width:0.751492;stroke-linecap:butt;stroke-linejoin:miter;stroke:rgb(100%,100%,100%);stroke-opacity:1;stroke-miterlimit:4;" d="M 3.750542 -0.375979 C 5.61659 -0.375979 7.127439 1.13452 7.127439 3.000137 C 7.127439 4.863253 5.61659 6.376253 3.750542 6.376253 C 1.886996 6.376253 0.376147 4.863253 0.376147 3.000137 C 0.376147 1.13452 1.886996 -0.375979 3.750542 -0.375979 Z M 3.750542 -0.375979 " transform="matrix(-1.561622,0,0,1.561983,568.802243,96.130242)"/>
<path style="fill-rule:nonzero;fill:rgb(6.27451%,18.039216%,29.019608%);fill-opacity:1;stroke-width:0.751492;stroke-linecap:butt;stroke-linejoin:miter;stroke:rgb(100%,100%,100%);stroke-opacity:1;stroke-miterlimit:4;" d="M 3.752396 -0.375975 C 5.615943 -0.375975 7.126791 1.134525 7.126791 3.000141 C 7.126791 4.863257 5.615943 6.376257 3.752396 6.376257 C 1.886348 6.376257 0.3755 4.863257 0.3755 3.000141 C 0.3755 1.134525 1.886348 -0.375975 3.752396 -0.375975 Z M 3.752396 -0.375975 " transform="matrix(-1.561622,0,0,1.561983,709.629357,89.063829)"/>
</g>
</svg>
